Coordinates
version=1
nRows=17
nColumns=36
inDegrees=yes

Units are S.I. units (second, meters, Newtons, ...)
If the header above contains a line with 'inDegrees', this indicates whether rotational values are in degrees (yes) or radians (no).

endheader
time	pelvis_tilt	pelvis_list	pelvis_rotation	pelvis_tx	pelvis_ty	pelvis_tz	hip_flexion_r	hip_adduction_r	hip_rotation_r	knee_angle_r	knee_angle_r_beta	ankle_angle_r	subtalar_angle_r	mtp_angle_r	hip_flexion_l	hip_adduction_l	hip_rotation_l	knee_angle_l	knee_angle_l_beta	ankle_angle_l	subtalar_angle_l	mtp_angle_l	lumbar_extension	lumbar_bending	lumbar_rotation	arm_flex_r	arm_add_r	arm_rot_r	elbow_flex_r	pro_sup_r	arm_flex_l	arm_add_l	arm_rot_l	elbow_flex_l	pro_sup_l
      5.81666670	      1.68826129	     -2.37623621	      0.19125571	      1.13512417	      0.92827773	      0.05590492	     50.58747369	     -2.95752509	      2.68821205	     26.18656938	      0.45704186	      6.39091774	      3.43095047	     -7.49999987	      2.45598082	      5.33386012	     -7.61555252	     15.35363448	      0.26797147	      6.47428059	    -11.51704515	     -7.49999987	     -7.11190307	     -0.00922665	      0.13091083	     38.60142665	      3.85532991	     58.06605994	    126.27790293	     92.91098600	     41.98132641	     -3.45210631	     69.80410876	    119.71615256	     95.47339396
      5.83333330	      1.88363388	     -2.23342135	      0.46001194	      1.13477073	      0.92524301	      0.05555646	     50.16076038	     -3.21541720	      2.82487609	     25.79746363	      0.45025068	      6.10317653	      3.51002735	     -7.49999987	      2.68138706	      5.53309922	     -7.14894763	     16.21096536	      0.28293472	      6.68552005	    -12.47602390	     -7.49999987	     -7.48575260	     -0.30599917	      0.82137358	     39.18013106	      3.78960752	     57.21710486	    126.46469790	     96.29234569	     42.37692817	     -3.16055054	     70.52061189	    119.32664564	     98.43406782
      5.85000000	      2.07603235	     -2.14061390	      0.50000995	      1.13986607	      0.92557543	      0.05275600	     49.78870796	     -3.41248142	      2.90655471	     25.52089876	      0.44542371	      5.71418781	      3.65087004	     -7.49999987	      3.37258824	      5.60500740	     -7.10423091	     17.85350523	      0.31160245	      7.17982651	    -13.20024698	     -7.49999987	     -7.76929329	     -0.45551163	      1.02344771	     39.63004609	      3.86665457	     57.01409990	    126.77675883	     96.23613185	     42.31633442	     -2.88184855	     70.72777836	    119.27439995	     98.46644741
      5.86666670	      2.19785170	     -1.97130705	      0.71847781	      1.13988742	      0.92522679	      0.05284300	     49.44941961	     -3.75930914	      2.92589530	     25.22280059	      0.44022092	      5.44797106	      3.83238479	     -7.49999987	      4.06522182	      5.83958009	     -6.71813318	     19.40663144	      0.33870962	      7.82737298	    -13.95352547	     -7.49999987	     -8.03480797	     -0.73266725	      0.83871122	     39.26177145	      3.57660654	     56.55849956	    126.72664285	     95.25625773	     42.24363085	     -2.45484017	     70.83705856	    119.45766696	     97.52579029
      5.88333330	      2.60835813	     -1.65603628	      0.92842915	      1.13504195	      0.92259925	      0.05562686	     49.07478057	     -4.18022059	      2.96878325	     25.11788360	      0.43838977	      4.95127888	      4.22695838	     -7.49999987	      4.82294329	      6.15116375	     -6.31243539	     21.19945078	      0.37000022	      8.36162564	    -14.70107517	     -7.49999987	     -8.95526125	     -1.27583240	      0.65975276	     39.42349257	      3.56585951	     56.20371020	    126.45976475	     95.27781741	     42.76851826	     -2.43478199	     71.01466739	    119.11387668	     97.61738239
      5.90000000	      2.97375153	     -1.43225269	      1.23129456	      1.13495073	      0.92242844	      0.05546285	     48.66040226	     -4.62056426	      2.79387124	     25.00110732	      0.43635164	      4.61888914	      4.70486942	     -7.49999987	      5.21981995	      6.42493605	     -5.62662884	     22.58355758	      0.39415744	      8.92112282	    -15.42110312	     -7.49999987	     -9.72934064	     -1.68549817	      0.94532161	     38.96140126	      2.67495119	     55.22368932	    126.62514283	     94.60281515	     42.83615152	     -2.65273482	     71.25038616	    118.88670826	     97.13900933
      5.91666670	      3.19219084	     -1.01528212	      1.46884171	      1.13509648	      0.91571995	      0.05546378	     48.69081875	     -5.12618492	      3.12779282	     25.21097742	      0.44001456	      4.08228608	      4.74789551	     -7.49999987	      6.12681904	      6.86771893	     -5.12754924	     24.38463808	      0.42559222	      9.62861859	    -15.98069925	     -7.49999987	    -10.26270346	     -2.36439630	      1.16513118	     38.70988296	      2.32559232	     54.40207369	    126.21280247	     93.76737846	     43.22506892	     -2.46976852	     71.01425860	    119.75856651	     95.98565057
      5.93333330	      3.28927125	     -0.73452112	      1.63865631	      1.13511110	      0.91508328	      0.05531080	     48.73320414	     -5.50545377	      3.33902178	     25.20199554	      0.43985780	      3.88269454	      5.02092484	     -7.49999987	      7.00559026	      7.22623132	     -4.57610145	     26.00892314	      0.45394134	     10.34587006	    -16.54317694	     -7.49999987	    -10.58527898	     -2.83953368	      1.41398348	     38.36393698	      1.90911490	     54.06988155	    125.91812287	     93.19923964	     43.19560375	     -2.45885951	     71.04353883	    120.84563755	     95.53286232
      5.95000000	      3.57505060	     -0.50337228	      1.78618854	      1.13525231	      0.91211595	      0.05557139	     48.43593313	     -5.76078758	      3.60265909	     24.83875530	      0.43351806	      3.54197493	      5.13235957	     -7.49999987	      7.41394644	      7.46037353	     -4.39270677	     27.22115407	      0.47509876	     11.21564230	    -16.43203628	     -7.49999987	    -11.10884316	     -3.25033872	      1.62071432	     38.49109039	      1.41221132	     53.27008778	    125.83183868	     92.62596720	     43.52039051	     -2.49202481	     71.87088063	    122.67819465	     94.91888503
      5.96666670	      3.85026350	     -0.37382940	      1.86033164	      1.13511019	      0.90671610	      0.05656609	     48.21581482	     -5.83920726	      3.95404344	     24.56357323	      0.42871523	      3.31909622	      4.99276631	     -7.49999987	      7.92851457	      7.58517601	     -4.27486153	     28.70676552	      0.50102758	     12.22069747	    -16.33906870	     -7.49999987	    -11.54769781	     -3.64419403	      2.13561511	     38.16913938	      1.05839730	     52.14103166	    125.98875486	     92.20679870	     43.83792431	     -2.02818671	     71.98071236	    123.16960575	     93.52776131
      5.98333330	      3.64509356	     -0.30472856	      1.82759477	      1.13965981	      0.89972460	      0.05398731	     48.61591177	     -5.84856498	      4.44635305	     24.60923201	      0.42951212	      3.38763684	      4.64507993	     -7.49999987	      8.93051200	      7.69584797	     -4.18408112	     30.37796099	      0.53019544	     13.69210483	    -16.05673284	     -7.49999987	    -11.16930561	     -3.87035519	      1.77478110	     38.36803791	      1.46906576	     51.88698465	    126.41268154	     93.83089539	     44.35193085	     -1.27307629	     71.80592526	    124.51872067	     94.30409798
      6.00000000	      3.62916123	     -0.01905865	      1.85827833	      1.13915539	      0.89947025	      0.05437794	     48.57503546	     -6.01576960	      4.97586105	     24.31699629	      0.42441165	      3.33772908	      4.47215294	     -7.49999987	      9.35310347	      8.03675419	     -4.06211950	     31.31294843	      0.54651405	     14.75882256	    -15.72660753	     -7.49999987	    -11.09187464	     -4.26186325	      1.48234235	     38.01581999	      1.56324127	     52.37690658	    126.25203273	     92.34381011	     44.31019978	     -0.78484567	     70.97908239	    124.56242533	     92.65801720
      6.01666670	      3.67572619	      0.24879781	      1.88896987	      1.13841922	      0.89263623	      0.05467174	     48.60164747	     -6.17553117	      5.69653527	     24.14608823	      0.42142874	      3.06911171	      3.94696897	     -7.49999987	      9.96014653	      8.34683394	     -4.02732810	     32.56162292	      0.56830753	     15.80872299	    -15.35515274	     -7.49999987	    -11.15579935	     -4.66848221	      1.12368385	     38.43543585	      1.87332943	     52.69133992	    126.79055308	     93.46903433	     44.67171628	     -0.43905975	     70.67845036	    124.38437613	     93.11051752
      6.03333330	      3.61344123	      0.78786341	      2.01373827	      1.13692339	      0.88558471	      0.05440104	     49.12775061	     -6.64086041	      6.55486916	     24.57219155	      0.42886565	      2.79490875	      3.30020627	     -7.49999987	     11.02259045	      9.02758865	     -3.86121020	     34.34610741	      0.59945266	     16.94235896	    -15.34115508	     -7.49999987	    -11.22344307	     -5.40639760	      0.92742777	     39.26508175	      2.28329909	     53.55575770	    127.23649617	     93.53474543	     45.50606943	      0.25864473	     70.79574308	    124.20468612	     92.67762299
      6.05000000	      3.48281626	      1.42387584	      2.10400622	      1.13564475	      0.87634160	      0.05427372	     49.88706894	     -7.15295171	      7.48584360	     25.16884884	      0.43927928	      2.31588035	      2.53236464	     -7.49999987	     12.48290763	      9.80736167	     -3.82757478	     36.48613320	      0.63680316	     18.09416503	    -15.53374932	     -7.49999987	    -11.09541059	     -6.23913205	      0.73878581	     39.68171486	      2.43711026	     54.17640571	    127.11886743	     92.42108592	     45.32623741	     -0.04566077	     70.67341961	    123.80909676	     91.43471500
      6.06666670	      3.66231602	      2.12796053	      2.26751032	      1.13484697	      0.87664465	      0.05451636	     50.08039912	     -7.77142280	      8.24517736	     25.42417669	      0.44373559	      1.69405651	      2.09662131	     -7.49999987	     13.26530082	     10.68106535	     -3.65522036	     38.06770358	      0.66440677	     19.09082627	    -15.65490072	     -7.49999987	    -11.50729709	     -7.14165740	      0.44829924	     39.85640049	      2.72484248	     54.70232296	    127.16442022	     92.39749602	     45.44727096	     -0.62696396	     71.36174973	    123.55546896	     91.09583611
      6.08333330	      3.97624979	      2.86909332	      2.49210109	      1.13450455	      0.87465181	      0.05524564	     49.79542368	     -8.45055326	      8.62769677	     25.24776667	      0.44065666	      0.90252658	      2.06733823	     -7.49999987	     13.47505328	     11.58181996	     -3.33535814	     39.01266340	      0.68089943	     19.93390999	    -15.66656006	     -7.49999987	    -12.10455253	     -7.88819681	      0.31823906	     39.39899426	      2.53599729	     54.96195214	    126.90161126	     92.19025917	     44.88234828	     -1.38589214	     71.64503130	    123.14618285	     90.68602409
